<svg xmlns="http://www.w3.org/2000/svg" width="2000" height="2000" viewBox="0 0 4000 4000">
  <defs>
    <style>
      .cls-1 {
        fill: #fff;
        fill-rule: evenodd;
      }
    </style>
  </defs>
  <path id="FRAGMETRICS" class="cls-1" d="M189.152,1826.22l-41.5,290.69h80L244.1,2001.65H424.788l9.483-66.42H253.586l6.136-42.98H444.89l9.427-66.03H189.152Zm562.73,169.39q-9.882-16.365-28.625-23.31,45.7-17.34,52.187-62.8l0.659-4.62q10.622-74.37-90.543-74.36H497.634L456.71,2117.17h72.978l14.521-101.71h95.216q26.625,0,35.879,11.94t5.463,38.53l-7.316,51.24H746.74l11.275-78.98Q761.756,2012,751.882,1995.61ZM697.3,1923.76q-1.817,12.705-10.12,20.42-8.3,7.695-23.334,7.71H553.285l8.032-56.26H671.881q15.035,0,21.132,7.71t4.345,20.03Zm364.027-95.15H941.747L775.3,2116.75H854.33l29.561-52.67H1051.96l14.52,52.67h79.02ZM920.252,1999.02l59.5-105.81h25.128l29.29,105.81H920.252Zm407.4,122.97q84.825,0,130.65-50.4c-2.39,19.27-5.7,45.32-5.7,45.32h57.84l23.26-162.93H1353.02l-7.87,55.09h100.69l-0.11.79q-0.39,2.73-3.99,7.42t-11.88,10.74a107,107,0,0,1-19.69,11.14q-11.415,5.085-29.85,8.59a212.065,212.065,0,0,1-39.81,3.52q-48.975,0-69.64-23.05t-16.1-55.09l0.61-4.3q11.22-78.54,108.8-78.53,78.615,0,85.46,41.41h85.52l0.05-.39a101.4,101.4,0,0,0-.31-26.76q-1.935-13.1-11.05-28.92a87,87,0,0,0-25.23-27.35q-16.11-11.52-46.38-19.34-30.255-7.815-71.29-7.81h-14.83q-42.4,0-76.05,9.77-33.63,9.765-54,24.42a150.678,150.678,0,0,0-34.79,34.77q-14.43,20.13-20.58,37.9a198.414,198.414,0,0,0-8.9,36.93l-1.56,10.94a163.036,163.036,0,0,0-1.07,37.7q1.665,18.555,10.51,38.68a104.873,104.873,0,0,0,25.15,35.17q16.305,15.045,45.94,24.81t69.64,9.76h7.24Zm232.62-4.68h77.41l28.8-201.69,72.47,201.69h43.2l130.06-201.69-28.8,201.69h79.49l41.6-291.37H1894.25L1779.2,2007.26l-62.94-181.32H1601.87Zm498.48-292.44-41.69,292.06h275.06l9.7-67.91H2106.43l6.84-47.89h187.42l9.52-66.74H2122.8l6.16-43.18h191.92l9.47-66.34h-271.6Zm376.26,292.44h81.22l31.75-222.44h110.95l9.84-68.93H2366.01l-9.84,68.93h110.6Zm524.7-121.7q-9.885-16.365-28.62-23.31,45.69-17.34,52.18-62.8l0.66-4.62q10.62-74.37-90.54-74.36H2705.46l-40.92,286.65h72.98l14.52-101.71h95.21q26.625,0,35.88,11.94t5.47,38.53l-7.32,51.24h73.29l11.28-78.98Q2969.585,2012,2959.71,1995.61Zm-54.58-71.85q-1.815,12.705-10.12,20.42-8.3,7.695-23.33,7.71H2761.11l8.04-56.26h110.56q15.03,0,21.13,7.71t4.35,20.03Zm220.39-97.54h-80.35l-41.5,290.7h80.34Zm173.99,295.81h14.2q41.91,0,75.6-9.02t53.54-21.98a145.092,145.092,0,0,0,33.73-30.04q13.875-17.07,19.47-30.81a112.814,112.814,0,0,0,7.45-26.69l0.62-4.32h-85.57a3.775,3.775,0,0,1-.51,1.18q-21.435,50.625-100.77,50.63-26.67,0-45.35-7.46t-26.97-19.82a73.146,73.146,0,0,1-11.08-25.51,77.8,77.8,0,0,1-.78-27.29l0.67-4.71a95.257,95.257,0,0,1,8.09-27.48,85.283,85.283,0,0,1,17.44-23.94q11.505-11.385,32-17.86t48.21-6.48q23.22,0,40.41,4.51,17.205,4.515,25.59,10.02a45.291,45.291,0,0,1,13.63,13.73q5.235,8.25,6.26,11.97a45.171,45.171,0,0,1,1.39,8.44h85.57l0.62-4.31a101.758,101.758,0,0,0,.32-25.32q-1.41-13.155-10.29-29.84a94.113,94.113,0,0,0-24.9-29.44q-16.02-12.75-47.32-21.59t-73.92-8.83h-14.2q-43.65,0-77.84,10.2t-54,25.13a145.471,145.471,0,0,0-33.68,35.72q-13.875,20.805-19.41,37.68a211.212,211.212,0,0,0-8.22,35.72l-1.62,11.39a191.707,191.707,0,0,0-1.92,24.34,132.908,132.908,0,0,0,2.72,27.08,127.966,127.966,0,0,0,8.66,27.87q5.775,12.96,17.46,25.71a106.712,106.712,0,0,0,27.93,21.6q16.23,8.835,41.08,14.32,24.855,5.5,55.69,5.5h0Zm372.47,0.38h23.85q37.32,0,65.95-5.68t45.99-14.69a97.091,97.091,0,0,0,28.94-22.32q11.58-13.32,16.5-26.05a130.753,130.753,0,0,0,7.23-28.78l0.78-5.48q6.255-43.86-22.77-64.42t-100.7-22.13l-24.21-.44-18.88-.34q-24.825-.39-37.92-4.31t-16.05-8.62q-2.955-4.7-1.9-12.14,1.125-7.83,5.05-12.33,3.93-4.515,20.06-8.62c10.76-2.74,23.15-4.11,42.5-4.11h12.01a133.368,133.368,0,0,1,29.16,2.74q13.95,2.745,20.7,6.27a27.825,27.825,0,0,1,10.47,9q3.705,5.49,4.44,8.81a39.023,39.023,0,0,1,.76,8.03h83.63l0.56-3.91a86.372,86.372,0,0,0-.02-26.44q-2.04-12.33-10.45-24.87-8.4-12.525-23.25-21.15-14.835-8.61-41.01-14.09t-61.43-5.49h-23.85q-33.855,0-60.19,5.29t-42.54,13.51a95.378,95.378,0,0,0-27.25,20.17q-11.04,11.94-15.85,23.89a111.448,111.448,0,0,0-6.83,26.04l-0.5,3.52q-11.64,81.465,113.26,85.38l18.84,0.5,25.24,0.67q28.56,0.78,43.19,4.89t17.98,9.6q3.375,5.49,2.03,14.88a29,29,0,0,1-4.07,11.55q-3.12,4.9-11.05,9.6t-24.19,7.25c-10.84,1.69-17.8,2.54-33.93,2.54h-18.68c-49.08,0-65.02-15.4-62.47-46.21h-83.98l-0.61,4.31a121.882,121.882,0,0,0-1.1,25.85q0.855,12.135,7.86,27.21a67.406,67.406,0,0,0,21.05,25.65q14.04,10.575,41.67,18.02,27.615,7.44,65.98,7.44v0.01Z"/>
</svg>
